<?xml version="1.0" encoding="utf-8"?>
<!-- Generator: Adobe Illustrator 23.1.1, SVG Export Plug-In . SVG Version: 6.00 Build 0)  -->
<svg version="1.1" id="Laag_1" xmlns="http://www.w3.org/2000/svg" xmlns:xlink="http://www.w3.org/1999/xlink" x="0px" y="0px"
	 viewBox="0 0 1000 440.8" style="enable-background:new 0 0 1000 440.8;" xml:space="preserve">
<style type="text/css">
	.st0{fill:none;stroke:#FFFFFF;stroke-width:3;stroke-miterlimit:10;}
	.st1{fill:#FFFFFF;}
</style>
<title>logo-bobplaza-2017</title>
<path class="st0" d="M843.6,39.4c3,2.6,7.5,2.6,10.6,0l6.4-5.5c2.9-2.6,6.8-1.9,8.7,1.6l4.1,7.4c2,3.4,6.2,5,10,3.6l7.8-3.1
	c2.7-1.3,6-0.1,7.2,2.7c0.3,0.6,0.4,1.2,0.5,1.8l1.3,8.3c0.7,3.9,4.1,6.8,8.1,6.8l8.4-0.3c3-0.2,5.6,2.1,5.8,5.1
	c0,0.6,0,1.1-0.2,1.7l-1.6,8.3c-0.7,4,1.6,7.9,5.4,9.3l8,2.8c3.6,1.3,5.1,4.9,3,8.3l-4.3,7.3c-2,3.5-1.2,7.9,1.9,10.4l6.5,5.2
	c2.4,1.7,3,5.1,1.3,7.6c-0.4,0.5-0.8,0.9-1.3,1.3l-6.5,5.2c-3,2.6-3.8,7-1.9,10.4l4.3,7.2c1.7,2.5,1.1,5.8-1.4,7.5
	c-0.5,0.3-1,0.6-1.6,0.7l-8,2.8c-3.8,1.4-6,5.3-5.4,9.3l1.6,8.3c0.7,2.9-1.1,5.9-4,6.7c-0.5,0.1-1.1,0.2-1.7,0.2l-8.4-0.1
	c-4,0-7.4,2.9-8.1,6.8l-1.3,8.3c-0.4,3.1-3.1,5.2-6.2,4.9c-0.5-0.1-1-0.2-1.5-0.4l-7.8-3c-3.8-1.3-8,0.2-10,3.6l-4.1,7.4
	c-1.4,2.7-4.7,3.8-7.4,2.5c-0.5-0.2-0.9-0.5-1.3-0.9l-6.4-5.5c-3-2.6-7.5-2.6-10.6,0l-6.4,5.5c-2.9,2.6-6.8,1.9-8.7-1.6l-4.1-7.4
	c-2-3.4-6.2-5-10-3.6l-7.8,3c-2.7,1.3-6,0.1-7.2-2.7c-0.3-0.6-0.4-1.2-0.5-1.8l-1.3-8.3c-0.7-3.9-4.1-6.8-8.1-6.8l-8.4,0.1
	c-3.9,0.1-6.4-3-5.7-6.8l1.6-8.3c0.7-4-1.6-7.9-5.4-9.3l-8-2.8c-3.6-1.3-5.1-5.1-3-8.3l4.3-7.2c2-3.5,1.2-7.9-1.9-10.4l-6.5-5.2
	c-2.4-1.7-3-5.1-1.3-7.6c0.4-0.5,0.8-0.9,1.3-1.3l6.5-5.2c3.1-2.6,3.8-7,1.8-10.4l-4.3-7.2c-1.7-2.5-1.1-5.8,1.4-7.5
	c0.5-0.3,1-0.6,1.6-0.7l8-2.8c3.8-1.4,6-5.3,5.4-9.3l-1.6-8.3c-0.7-3,1.2-6,4.2-6.7c0.5-0.1,1-0.2,1.5-0.1l8.4,0.1
	c4,0,7.4-2.9,8.1-6.8l1.3-8.3c0.4-3.1,3.1-5.2,6.2-4.9c0.5,0.1,1,0.2,1.5,0.4l7.8,3c3.8,1.3,8-0.2,10-3.6l4.1-7.4
	c1.4-2.7,4.7-3.8,7.4-2.5c0.5,0.2,0.9,0.5,1.3,0.9L843.6,39.4z"/>
<path class="st1" d="M451.7,250.5c-0.4-5.1-1.6-10.1-3.5-14.8c-2.9-7-7.7-13-13.9-17.4l0,0c-6.4-4.4-14-6.7-21.8-6.7h-0.1
	c-6.5,0.1-12.9,1.5-18.9,4.2c-9,4.1-16.8,10.2-22.9,18c-6.4,8-10.9,17.4-13.2,27.4l-9,41.6c0,0.2,0,0.3-0.1,0.4l-11.6,53.1
	c-0.2,0.7-0.3,1.4-0.3,2.2c0.1,5.1,3.4,9.5,8.3,10.9c1,0.3,2,0.4,3,0.4l0,0c4.7,0.1,8.8-3.2,9.7-7.8l9.9-45.5h28
	c6.6-0.1,13-1.5,19-4.2c9-4.1,16.8-10.3,22.9-18c6.4-8,10.9-17.4,13.2-27.4c0.9-4.1,1.3-8.3,1.3-12.5
	C451.8,253.1,451.8,251.8,451.7,250.5z M429.5,261.4c-2.1,9.4-7,17.9-14.1,24.4c-3.2,3-6.8,5.4-10.7,7.2c-3.3,1.5-6.9,2.3-10.6,2.4
	h-22l6.1-28.3c2.2-9.4,7.1-17.9,14.1-24.5c3.1-3,6.7-5.4,10.7-7.2c3.3-1.5,6.9-2.4,10.6-2.5c2.3-0.1,4.6,0.4,6.7,1.3
	c2.8,1.2,5.1,3.1,6.7,5.7c2,3.3,3.2,7,3.5,10.9c0,0.7,0.1,1.6,0.1,2.5C430.4,256,430.1,258.7,429.5,261.4l1.8,0.4L429.5,261.4z"/>
<path class="st1" d="M241.8,254.7c0-1.4,0-2.7-0.1-4.1c-0.4-5.1-1.6-10.1-3.5-14.8c-2.9-7-7.7-13-13.9-17.4l0,0
	c-6.4-4.4-14-6.7-21.8-6.7h-0.1c-6.5,0-12.9,1.5-18.9,4.2c-9,4.1-16.8,10.2-22.9,18c-6.4,8-10.9,17.4-13.2,27.4
	c-0.9,4.1-1.3,8.3-1.3,12.5c0,1.4,0,2.7,0.1,4.1c0.4,5.1,1.6,10.1,3.5,14.8c2.9,7,7.7,13,13.9,17.4c6.4,4.4,14,6.7,21.8,6.7h0.1
	c6.5-0.1,12.9-1.5,18.9-4.2c9-4.1,16.8-10.3,22.9-18c6.1-7.6,10.5-16.5,12.9-26l0,0l0.3-1.3v-0.1l0,0
	C241.3,263.1,241.7,258.9,241.8,254.7z M219.4,261.4c-2.1,9.3-7,17.8-14.1,24.4c-3.2,3-6.8,5.4-10.7,7.2c-3.3,1.5-7,2.3-10.6,2.4
	c-2.3,0.1-4.6-0.4-6.7-1.3c-2.7-1.2-5.1-3.1-6.7-5.7c-2-3.3-3.2-7-3.5-10.9c0-0.9-0.1-1.6-0.1-2.5c0-2.7,0.3-5.4,0.9-8
	c2.2-9.3,7.1-17.8,14.1-24.4c3.1-3,6.8-5.5,10.7-7.3c3.3-1.5,6.9-2.4,10.6-2.5l0,0c2.3-0.1,4.6,0.4,6.7,1.3c2.7,1.2,5.1,3.1,6.7,5.7
	c2,3.3,3.2,7,3.5,10.9c0,0.7,0.1,1.6,0.1,2.5C220.4,256,220.1,258.7,219.4,261.4l1.7,0.4L219.4,261.4z"/>
<path class="st1" d="M678.9,295.4h-45.7l64.1-65.2c1.8-1.9,2.9-4.4,2.9-7c-0.2-6.3-5.2-11.3-11.5-11.5h-72.2c-5.5,0-10,4.4-10,9.9
	c0,0,0,0.1,0,0.1v0.9c0.5,5.9,5.4,10.4,11.3,10.4h45.7l-64.1,65.4v0.1l-0.1,0.2l0.1,0.1l-0.1-0.1l0,0v0.1l-0.2,0.2l-0.1,0.1
	l-0.2,0.2v0.1l-0.1,0.2v0.1l-0.2,0.2l-0.1,0.1l-0.2,0.2l0,0c-0.1,0.1-0.1,0.2-0.1,0.3v0.1l-0.2,0.3l0,0v0.5c0,0.1,0,0.1-0.1,0.3v0.1
	c0,0.1-0.1,0.2-0.2,0.3v0.4l0,0v0.1c0,0.2,0,0.3-0.1,0.4v0.9l0,0v1.7l0,0v2.2l0,0v0.3l0.1,0.3c0,0.1,0.1,0.2,0.2,0.3l0,0
	c0,0.2,0.1,0.3,0.1,0.4v0.2l0,0l0.2,0.3l0.1,0.2c0.1,0.1,0.1,0.2,0.2,0.3l0.1,0.3l0.2,0.3l0.1,0.1v0.3l0,0c0.1,0.1,0.1,0.2,0.2,0.3
	l0.1,0.2c0.1,0.1,0.1,0.2,0.2,0.3l0.1,0.3l0.2,0.1l0.6-0.3l-0.4,0.3v0.1l0.3,0.3l0.3,0.3l0.2,0.1l0.3,0.3l0,0l0.1,0.2l0.3,0.3h0.3
	c0.2,0.1,0.3,0.1,0.4,0.3l0,0c0.1,0.1,0.2,0.1,0.3,0.1l0,0l0.3,0.2l0.3,0.1l0.1,0.2h0.2c0.1,0,0.1,0.1,0.4,0.1l0,0
	c0.1,0.1,0.2,0.1,0.3,0.2c1.4,0.7,3,1,4.6,1h72.2c5.5,0,10-4.4,10-9.9c0,0,0-0.1,0-0.1v-0.9C689.5,299.6,684.6,295.5,678.9,295.4z"
	/>
<path class="st1" d="M345.9,250.5l-1.9,0.2L345.9,250.5c-0.4-5.1-1.6-10.1-3.5-14.8c-2.9-7-7.7-13-13.9-17.4
	c-6.4-4.4-14-6.7-21.8-6.7h-22.2l7.7-35.7l0.1-0.3l0.9-4.1c0.4-1.3-0.4-2.6-1.6-2.9c-0.3-0.1-0.6-0.1-0.8-0.1h-29.4
	c-1.8,0-3.4,1.2-3.8,3l-0.9,4.1c-0.4,1.2,0.3,2.6,1.6,3c0.3,0.1,0.6,0.1,0.9,0.1h10.4l-8.8,40.5c0,0.2,0,0.3-0.1,0.4l-9,41.6
	c-0.9,4.1-1.3,8.3-1.3,12.5c0,1.5,0,2.8,0.1,4.2c0.4,5.1,1.6,10.1,3.5,14.8c2.9,7,7.7,13,13.9,17.4c6.4,4.4,14,6.7,21.8,6.7h0.1
	c6.5-0.1,12.9-1.5,18.9-4.2c9-4.1,16.8-10.2,22.9-18c6.4-8,10.9-17.4,13.2-27.4c0.9-4.1,1.3-8.3,1.3-12.5
	C346,253.2,346,251.9,345.9,250.5z M323.9,261.4c-2.1,9.4-7,17.9-14.1,24.4c-3.2,3-6.8,5.5-10.8,7.2c-3.3,1.5-6.9,2.3-10.6,2.4
	c-2.3,0.1-4.6-0.4-6.7-1.3c-2.7-1.2-5.1-3.1-6.7-5.7c-2-3.3-3.2-7-3.5-10.9c0-0.9-0.1-1.6-0.1-2.5c0-2.7,0.3-5.4,0.9-8l7.4-34.1h28
	c2.3,0,4.6,0.4,6.7,1.4c2.7,1.2,5.1,3.1,6.7,5.7c2,3.3,3.2,7,3.5,10.9c0,0.7,0.1,1.6,0.1,2.5C324.7,256.1,324.4,258.8,323.9,261.4
	L323.9,261.4z"/>
<path class="st1" d="M794.2,250.5c-0.4-5.1-1.6-10.1-3.5-14.8c-2.9-7-7.7-13-13.9-17.4l0,0c-6.4-4.4-14-6.7-21.8-6.7h-0.2
	c-6.5,0.1-12.9,1.5-18.8,4.2c-9,4.1-16.8,10.2-22.9,18c-6.4,8-10.9,17.4-13.1,27.4c-0.9,4.1-1.3,8.3-1.3,12.5c0,1.4,0,2.7,0.2,4.1
	c0.4,5.1,1.6,10.1,3.5,14.8c2.9,7,7.7,13,13.9,17.4c6.4,4.4,14,6.7,21.8,6.7h36.2c4.7,0.1,8.8-3.2,9.7-7.8l9-41.8
	c0.9-4.1,1.3-8.3,1.3-12.5C794.3,253.2,794.3,251.9,794.2,250.5z M772.2,261.4l-7.4,34h-28c-2.3,0.1-4.6-0.4-6.7-1.3
	c-2.8-1.2-5.1-3.1-6.7-5.7c-2-3.3-3.2-7-3.4-10.8c0-0.9-0.2-1.6-0.2-2.5c0-2.7,0.3-5.4,0.9-8c2.2-9.4,7.1-17.9,14.1-24.5
	c3.1-3,6.7-5.4,10.7-7.2c3.3-1.5,6.9-2.4,10.6-2.5l0,0c2.3-0.1,4.6,0.4,6.7,1.3c2.8,1.2,5.1,3.1,6.7,5.7c2,3.3,3.2,7,3.5,10.9
	c0,0.7,0.2,1.6,0.2,2.5C773,256,772.7,258.7,772.2,261.4L772.2,261.4z"/>
<path class="st1" d="M593.7,250.5c-0.4-5.1-1.6-10.1-3.5-14.8c-2.9-7-7.7-13-13.9-17.4l0,0c-6.4-4.4-14-6.7-21.8-6.7h-0.1
	c-6.5,0.1-12.9,1.5-18.8,4.2c-9,4.1-16.8,10.2-22.9,18c-6.4,8-10.9,17.4-13.2,27.4c-0.9,4.1-1.3,8.3-1.3,12.5c0,1.4,0,2.7,0.1,4.1
	c0.4,5.1,1.6,10.1,3.5,14.8c2.9,7,7.7,13,13.9,17.4c6.4,4.4,14,6.7,21.8,6.7h36.2c4.7,0.1,8.8-3.2,9.7-7.8l9.1-41.8
	c0.9-4.1,1.3-8.3,1.3-12.5C593.8,253.2,593.8,251.8,593.7,250.5z M571.7,261.4l-7.4,34h-28c-2.3,0.1-4.6-0.4-6.7-1.3
	c-2.7-1.2-5.1-3.1-6.7-5.7c-2-3.3-3.2-7-3.5-10.9c0-0.9-0.1-1.6-0.1-2.5c0-2.7,0.3-5.4,0.9-8c2.2-9.4,7.1-17.9,14.1-24.5
	c3.1-3,6.8-5.4,10.7-7.2c3.3-1.5,6.9-2.4,10.6-2.5l0,0c2.3-0.1,4.6,0.4,6.7,1.3c2.7,1.2,5.1,3.1,6.7,5.7c2,3.3,3.2,7,3.5,10.9
	c0,0.7,0.1,1.6,0.1,2.5C572.5,256,572.2,258.7,571.7,261.4L571.7,261.4z"/>
<path class="st1" d="M138.1,250.5l-1.9,0.2L138.1,250.5c-0.4-5.1-1.6-10.1-3.5-14.8c-2.9-7-7.7-13-13.9-17.4
	c-6.4-4.4-14-6.7-21.8-6.7H76.7l7.7-35.7v-0.1l0.9-4.1c0.4-1.3-0.3-2.6-1.6-3c-0.3-0.1-0.6-0.1-0.9-0.1H53.5c-1.8,0-3.4,1.3-3.8,3
	l-1,4.1c-0.4,1.2,0.4,2.6,1.6,2.9c0.3,0.1,0.6,0.1,0.9,0.1h10.4l-8.8,40.5c0,0.2,0,0.3-0.2,0.4l-9,41.6c-0.9,4.1-1.3,8.3-1.3,12.5
	c0,1.5,0,2.8,0.1,4.2c0.4,5.1,1.6,10.1,3.5,14.8c2.9,7,7.7,13,13.9,17.4c6.4,4.4,14,6.7,21.8,6.7h0.2c6.5,0,12.9-1.5,18.8-4.2
	c9-4.1,16.8-10.2,22.9-18c6.4-8,10.9-17.4,13.2-27.4c0.9-4.1,1.3-8.3,1.3-12.5C138.2,253.2,138.1,251.9,138.1,250.5z M115.9,261.4
	c-2.1,9.4-7,17.9-14.1,24.4c-3.1,3-6.8,5.5-10.7,7.2c-3.3,1.5-6.9,2.3-10.6,2.4c-2.3,0.1-4.6-0.4-6.7-1.3c-2.7-1.2-5.1-3.1-6.7-5.7
	c-2-3.3-3.2-7-3.5-10.9c0-0.9-0.1-1.6-0.1-2.5c0-2.7,0.3-5.4,0.9-8l7.4-34.1h28c2.3-0.1,4.6,0.4,6.7,1.3c2.7,1.2,5.1,3.1,6.7,5.7
	c2,3.3,3.2,7,3.5,10.9c0,0.7,0.1,1.6,0.1,2.5C116.9,256,116.6,258.8,115.9,261.4z"/>
<path class="st1" d="M503.3,168.7h-29.1c-1.8,0-3.4,1.3-3.8,3l-0.9,4.1c-0.4,1.3,0.4,2.6,1.6,2.9c0.3,0.1,0.6,0.1,0.8,0.1h10
	l-26.7,124.3c-1.4,5.8,2.2,11.6,8,13c1,0.3,2,0.4,3,0.4l0,0c4.7,0.1,8.8-3.2,9.7-7.8l28.7-133l0,0l0.9-4.1c0.3-1.2-0.4-2.5-1.6-2.9
	C503.8,168.7,503.6,168.7,503.3,168.7z"/>
<circle class="st1" cx="783.5" cy="145.7" r="5.1"/>
<path class="st1" d="M794.2,122.2c0-17.1,4.8-22,15.5-22c9,0,13.6,5.5,13.6,12.2c0,3.2-1.2,5.4-4.6,5.4s-4.3-1.5-4.8-5.5
	c-0.4-3.3-1.9-4.9-4.2-4.9c-4.1,0-6.1,1.9-6.1,16.2v2.8c0,11.6,0.3,17.5,6,17.5c2.3,0,4.3-2.2,4.5-4.9c0.3-5.5,1-7.4,4.8-7.4
	c3,0,4.6,2,4.6,5.4c0,10.1-6,14.2-14.7,14.2c-14.2,0-14.5-11.6-14.5-21v-7.8L794.2,122.2z"/>
<path class="st1" d="M828,120c0-17.8,7.2-19.9,14.8-19.9s14.8,2,14.8,19.9v10.3c0,18.3-6.5,20.7-14.8,20.7s-14.8-2.5-14.8-20.7V120z
	 M837.4,130.3c0,11.9,1.7,13.5,5.4,13.5s5.4-1.7,5.4-13.5V120c0-10.4-1.9-12.8-5.4-12.8s-5.4,2.3-5.4,12.8V130.3z"/>
<path class="st1" d="M864.2,107.1c0-4.4,1.5-6.7,7.2-6.7c4.6,0,7,1.7,8,7.2L884,131h0.2l4.5-23.3c1-5.5,3.5-7.2,8-7.2
	c5.8,0,7.2,2.3,7.2,6.7v39c0.1,2.4-1.7,4.5-4.1,4.6c-0.1,0-0.3,0-0.4,0c-2.5,0-4.5-2-4.5-4.4c0-0.1,0-0.1,0-0.2v-34.8h-0.2
	l-7.4,36.5c-0.3,1.6-0.9,2.9-3.2,2.9s-2.9-1.5-3.2-2.9l-7.4-36.5h-0.3v34.8c0.1,2.4-1.7,4.5-4.1,4.6c-0.1,0-0.3,0-0.4,0
	c-2.5,0-4.5-2-4.5-4.4c0-0.1,0-0.1,0-0.2L864.2,107.1L864.2,107.1z"/>
<path class="st1" d="M407.3,370.7l-4.1,19.1c-0.6,2.8-3,4.8-5.8,4.9c-2.6,0-4.4-1.9-3.6-4.9l9.1-42.9c0.6-2.8,3-4.8,5.8-4.9
	c2.6,0,4.4,1.9,3.6,4.9l-3.5,16.2h12.5l3.5-16.2c0.6-2.8,3-4.8,5.8-4.9c2.6,0,4.4,1.9,3.6,4.9l-9.1,42.9c-0.6,2.8-3,4.8-5.8,4.9
	c-2.6,0-4.4-1.9-3.6-4.9l4.1-19.1H407.3z"/>
<path class="st1" d="M435.3,369.5c1.7-8.1,5.8-14.8,16.1-14.8s11.6,6.7,9.9,14.8l-2.2,10.3c-1.7,8.1-5.8,14.8-16.1,14.8
	s-11.6-6.7-9.9-14.8L435.3,369.5z M442.3,379.2c-1.5,7.1-0.7,8.7,2,8.7s4.4-1.7,5.8-8.7l1.9-9.1c1.5-7,0.4-8.6-2.2-8.6
	s-4.4,1.7-5.8,8.6L442.3,379.2z"/>
<path class="st1" d="M469.5,362h-0.9c-2.6,0-3.6-0.9-3.2-3.2s2-3.2,4.5-3.2h0.9l1.5-6.5c0.7-3.5,2.8-5.1,5.4-5.1s3.9,1.6,3.2,5.1
	l-1.5,6.5h2c2.6,0,3.6,0.9,3.2,3.2s-1.9,3.2-4.5,3.2h-2l-4.8,22.5c-0.3,1.6-0.1,2.6,1.7,2.6s3,0.7,2.5,3c-0.6,2.9-2.6,4.1-6.2,4.1
	c-6.7,0-8-3.5-7.1-7.1L469.5,362z"/>
<path class="st1" d="M499.6,371.3c1.9-9.1,4.6-16.5,16.1-16.5c9.9,0,10.4,7,9.7,10.4s-2.9,4.9-5.2,4.9c-2.9,0-4.1-1.3-3.3-4.9
	c0.6-2.5-0.6-3.6-2.5-3.6c-3.5,0-4.5,3.9-5.5,9l-1.7,8.4c-1.3,6.4-1,9,1.7,9c1.6,0,3.3-0.9,4.1-3.9c1.3-4.9,2.9-6.2,5.7-6.2
	s3.8,1.9,3.2,5.1c-0.9,3.8-4.3,11.9-14.5,11.9c-11.5,0-11-7.4-9.1-16.5L499.6,371.3z"/>
<path class="st1" d="M529,369.5c1.7-8.1,5.8-14.8,16.1-14.8s11.6,6.7,9.9,14.8l-2.2,10.3c-1.7,8.1-5.8,14.8-16.1,14.8
	s-11.6-6.7-9.9-14.8L529,369.5z M536,379.2c-1.5,7.1-0.7,8.7,2,8.7s4.3-1.7,5.8-8.7l1.9-9.1c1.5-7,0.4-8.6-2.2-8.6s-4.3,1.7-5.8,8.6
	L536,379.2z"/>
<path class="st1" d="M563.2,362h-0.9c-2.6,0-3.6-0.9-3.2-3.2c0.6-2.5,2-3.2,4.5-3.2h0.9l1-5.1c1.5-6.5,4.8-8.4,11.3-8.4
	c2.8,0,4.1,1.2,3.5,3.8c-0.1,1.7-1.5,2.9-3.2,2.9c-2.2,0-2.8,1-3.2,3.2l-0.7,3.5h1.3c2.6,0,3.6,0.9,3.2,3.2s-1.9,3.2-4.5,3.2h-1.3
	l-5.8,27.5c-0.7,3.5-2.8,5.1-5.4,5.1s-3.9-1.6-3.2-5.1L563.2,362z"/>
<path class="st1" d="M580.8,362h-0.9c-2.6,0-3.6-0.9-3.2-3.2s2-3.2,4.5-3.2h0.9l1-5.1c1.5-6.5,4.8-8.4,11.3-8.4
	c2.8,0,4.1,1.2,3.5,3.8c-0.1,1.7-1.5,2.9-3.2,2.9c-2.2,0-2.8,1-3.2,3.2l-0.7,3.5h1.3c2.6,0,3.6,0.9,3.2,3.2s-1.9,3.2-4.5,3.2h-1.3
	l-5.8,27.5c-0.7,3.5-2.8,5.1-5.4,5.1s-3.9-1.6-3.2-5.1L580.8,362z"/>
<path class="st1" d="M594.5,370.7c2-9.7,4.8-16,16.5-16c9,0,10.9,5.1,8.8,15.1c-0.7,3.5-1.7,6.1-6.1,6.1h-11.3l-0.9,3.9
	c-1,4.6-1.5,8.1,2.2,8.1c1.9,0,3.6-1.9,4.2-3.9c0.9-3.8,2.8-4.6,5.2-4.6s4.2,0.9,3.5,4.2c-1.5,7-7.1,11-14.1,11
	c-11.7,0-11.7-6.2-9.7-16L594.5,370.7z M611.2,369.8l0.7-3.2c0.6-2.9,0.2-5.1-2.6-5.1s-4.2,2.3-4.8,5.1l-0.7,3.2H611.2z"/>
<path class="st1" d="M623.8,370.7c2-9.7,4.8-16,16.5-16c9,0,10.9,5.1,8.8,15.1c-0.7,3.5-1.7,6.1-6.1,6.1h-11.3l-0.9,3.9
	c-1,4.6-1.5,8.1,2.2,8.1c1.9,0,3.6-1.9,4.2-3.9c0.9-3.8,2.8-4.6,5.2-4.6s4.2,0.9,3.5,4.2c-1.5,7-7.1,11-14.1,11
	c-11.7,0-11.7-6.2-9.7-16L623.8,370.7z M640.5,369.8l0.7-3.2c0.6-2.9,0.2-5.1-2.6-5.1s-4.2,2.3-4.8,5.1l-0.7,3.2H640.5z"/>
<path class="st1" d="M653.5,384c3.9,0,4.9,3.6,4.2,6.8c-1.6,7.5-8.1,12.8-12,12.8c-0.8,0.1-1.5-0.5-1.6-1.4c0-0.1,0-0.3,0-0.4
	c0.3-1,0.7-1.5,2.3-2c2.6-0.9,4.7-2.7,6.1-5.1h-1.5c-2.2,0.2-4.1-1.4-4.3-3.6c0-0.5,0-1,0.1-1.4C647.4,386.4,650.2,384,653.5,384z"
	/>
<path class="st1" d="M680.5,371.3c1.9-9.1,4.6-16.5,16.1-16.5c9.9,0,10.4,7,9.7,10.4s-2.9,4.9-5.2,4.9c-2.9,0-4.1-1.3-3.3-4.9
	c0.6-2.5-0.6-3.6-2.5-3.6c-3.5,0-4.5,3.9-5.5,9l-1.7,8.4c-1.3,6.4-1,9,1.7,9c1.6,0,3.3-0.9,4.1-3.9c1.3-4.9,2.9-6.2,5.7-6.2
	s3.8,1.9,3.2,5.1c-0.9,3.8-4.3,11.9-14.5,11.9c-11.5,0-11-7.4-9.1-16.5L680.5,371.3z"/>
<path class="st1" d="M710,369.5c1.7-8.1,5.8-14.8,16.1-14.8s11.6,6.7,9.9,14.8l-2.2,10.3c-1.7,8.1-5.8,14.8-16.1,14.8
	s-11.6-6.7-9.9-14.8L710,369.5z M717,379.2c-1.5,7.1-0.7,8.7,2,8.7s4.3-1.7,5.8-8.7l1.9-9.1c1.5-7,0.4-8.6-2.2-8.6s-4.3,1.7-5.8,8.6
	L717,379.2z"/>
<path class="st1" d="M740.5,369.5c1.7-8.1,5.8-14.8,16.1-14.8s11.6,6.7,9.9,14.8l-2.2,10.3c-1.7,8.1-5.8,14.8-16.1,14.8
	s-11.6-6.7-9.9-14.8L740.5,369.5z M747.5,379.2c-1.5,7.1-0.7,8.7,2,8.7s4.3-1.7,5.8-8.7l1.9-9.1c1.5-7,0.4-8.6-2.2-8.6
	s-4.3,1.7-5.8,8.6L747.5,379.2z"/>
<path class="st1" d="M777.4,347.2c0.7-3.5,2.8-5.1,5.4-5.1s3.9,1.6,3.2,5.1l-9,42.3c-0.7,3.5-2.8,5.1-5.4,5.1s-3.9-1.6-3.2-5.1
	L777.4,347.2z"/>
<path class="st1" d="M807.1,359.8c0.7-3.5,2.8-5.1,5.4-5.1s3.9,1.6,3.2,5.1h0.1c1.9-3,5.2-4.9,8.7-5.1c7.7,0,7.7,7.1,6,14.9
	l-2.2,10.3c-1.6,7.8-4.6,14.9-12.3,14.9c-3.2,0-5.8-1.5-6.7-4.3h-0.2l-2.8,12.9c-0.7,3.5-2.8,5.1-5.4,5.1s-3.9-1.6-3.2-5.1
	L807.1,359.8z M811.7,378.7c-1.2,5.4-1,9.3,2.3,9.3s4.3-3.6,5.7-10l1.2-5.4c1.7-8.4,1.5-10.7-1.5-10.7c-2,0-4.5,1.6-6.2,9.3
	L811.7,378.7z"/>
<path class="st1" d="M838.9,359.4c0.6-2.8,2.2-4.6,5.1-4.6s3.6,1.9,3,4.6l-0.7,3.6h0.2c2.3-4.8,5.2-8.3,8.1-8.3c2.3,0,3.9,1.7,3,5.5
	c-0.5,3.1-3.2,5.3-6.4,5.2c-3,0.1-5.5,2.3-5.9,5.2l-4.1,18.8c-0.7,3.5-2.8,5.1-5.4,5.1s-3.9-1.6-3.2-5.1L838.9,359.4z"/>
<path class="st1" d="M861.8,359.8c0.7-3.5,2.8-5.1,5.4-5.1s3.9,1.6,3.2,5.1l-6.2,29.7c-0.7,3.5-2.8,5.1-5.4,5.1s-3.9-1.6-3.2-5.1
	L861.8,359.8z M869.9,341.8c2.1-0.1,4,1.5,4.1,3.7c0,0.4,0,0.8-0.1,1.3c-0.6,2.8-3.1,4.8-5.9,4.9c-2.1,0.1-3.9-1.5-4.1-3.6
	c0-0.4,0-0.9,0.1-1.3C864.6,343.9,867,341.9,869.9,341.8L869.9,341.8z"/>
<path class="st1" d="M874.4,371.3c1.9-9.1,4.6-16.5,16.1-16.5c9.9,0,10.4,7,9.7,10.4s-2.9,4.9-5.2,4.9c-2.9,0-4.1-1.3-3.3-4.9
	c0.6-2.5-0.6-3.6-2.5-3.6c-3.5,0-4.5,3.9-5.5,9l-1.7,8.4c-1.3,6.4-1,9,1.7,9c1.6,0,3.3-0.9,4.1-3.9c1.3-4.9,2.9-6.2,5.7-6.2
	s3.8,1.9,3.2,5.1c-0.9,3.8-4.3,11.9-14.5,11.9c-11.5,0-11-7.4-9.1-16.5L874.4,371.3z"/>
<path class="st1" d="M903.5,370.7c2-9.7,4.8-16,16.5-16c9,0,10.9,5.1,8.8,15.1c-0.7,3.5-1.7,6.1-6.1,6.1h-11.3l-0.9,3.9
	c-1,4.6-1.5,8.1,2.2,8.1c1.9,0,3.6-1.9,4.2-3.9c0.9-3.8,2.8-4.6,5.2-4.6s4.2,0.9,3.5,4.2c-1.5,7-7.1,11-14.1,11
	c-11.8,0-11.8-6.2-9.7-16L903.5,370.7z M920.2,369.8l0.7-3.2c0.6-2.9,0.1-5.1-2.6-5.1s-4.2,2.3-4.8,5.1l-0.7,3.2H920.2z"/>
<path class="st1" d="M937.6,375c-4.2-3.6-4.5-6.1-3.6-10.2c1.5-7,7.1-10.3,13.9-10.3c9.1,0,10.3,6.2,9.6,9.4
	c-0.6,2.6-1.9,4.2-5.4,4.2c-2.3,0-3.2-1.2-2.8-3.3c0.4-2.6-0.7-3.9-2.9-3.9c-1.7,0-3.2,1.2-3.6,2.9c-0.3,1.3,0.1,2.7,1.2,3.6
	l4.5,4.1c4.5,4.1,6.8,6.5,5.7,11.7c-1.6,7.5-7.8,11.2-14.9,11.2c-9.3,0-10.6-6.1-9.6-10.4c0.7-3.2,2.9-4.3,5.1-4.3
	c3.2,0,3.9,1.7,3.3,5.2c-0.2,1.6,0.4,3,3,3c2.3,0,3.6-1.3,4.2-3.5c0.4-1.9,0-2.9-2-4.8L937.6,375z"/>
</svg>
